<svg width="200" height="200" viewBox="0 0 200 200" fill="none" xmlns="http://www.w3.org/2000/svg">
    <path d="M160 40H40C31.716 40 25 46.716 25 55V125C25 133.284 31.716 140 40 140H70V165C70 167.761 72.239 170 75 170C76.126 170 77.165 169.628 78 169L108 140H160C168.284 140 175 133.284 175 125V55C175 46.716 168.284 40 160 40Z" fill="#E9EFFD"/>
    <path d="M135 70H65C63.343 70 62 71.343 62 73C62 74.657 63.343 76 65 76H135C136.657 76 138 74.657 138 73C138 71.343 136.657 70 135 70Z" fill="#BED1FB"/>
    <path d="M115 90H65C63.343 90 62 91.343 62 93C62 94.657 63.343 96 65 96H115C116.657 96 118 94.657 118 93C118 91.343 116.657 90 115 90Z" fill="#BED1FB"/>
    <path d="M95 110H65C63.343 110 62 111.343 62 113C62 114.657 63.343 116 65 116H95C96.657 116 98 114.657 98 113C98 111.343 96.657 110 95 110Z" fill="#BED1FB"/>
    <path d="M160 30H40C26.193 30 15 41.193 15 55V125C15 138.807 26.193 150 40 150H65V170C65 173.866 68.134 177 72 177C73.978 177 75.794 176.157 77 174.73L107 150H160C173.807 150 185 138.807 185 125V55C185 41.193 173.807 30 160 30Z" stroke="#4E73DF" stroke-width="4" stroke-linecap="round" stroke-linejoin="round"/>
</svg> 